<svg xmlns="http://www.w3.org/2000/svg" width="16.259" height="16.549" viewBox="0 0 16.259 16.549">
    <path id="Контур_2070" fill="#fff" d="M12.593 12.2a3.444 3.444 0 0 1-4.788.031L1.648 6.228a1.082 1.082 0 0 1-.28-.459L.047 1.432A1.1 1.1 0 0 1 .326.338a1.155 1.155 0 0 1 1.111-.3l4.548 1.206a1.116 1.116 0 0 1 .494.279l6.145 6a3.265 3.265 0 0 1-.031 4.677zm-7.51-8.9l-2.288-.607.657 2.156L7.606 8.9l1.607-1.569zm5.935 5.793l-.218-.212-1.606 1.571.217.211a1.148 1.148 0 0 0 1.6-.01 1.088 1.088 0 0 0 .007-1.56z" data-name="Контур 2070" transform="rotate(-74.99 8.56 6.566)"/>
</svg>
